<svg width="26" height="26" viewBox="0 0 26 26" fill="none" xmlns="http://www.w3.org/2000/svg">
<g clip-path="url(#clip0_2245_1125)">
<path d="M21.3338 5.06634C19.7271 4.34098 18.0055 3.80688 16.2043 3.50134C16.1713 3.49533 16.1383 3.50976 16.1224 3.53984C15.9011 3.92717 15.6553 4.4336 15.4841 4.83056C13.5472 4.54547 11.6202 4.54547 9.72243 4.83056C9.55002 4.42398 9.29567 3.92717 9.07313 3.53984C9.05601 3.51097 9.023 3.49653 8.99121 3.50134C7.1913 3.80688 5.46842 4.34098 3.8617 5.06634C3.84825 5.07235 3.83602 5.08197 3.82746 5.0952C0.560222 9.89724 -0.334869 14.5814 0.104105 19.2078C0.10655 19.2306 0.11878 19.2523 0.137122 19.2655C2.29286 20.8233 4.38138 21.7688 6.43074 22.3955C6.46376 22.4051 6.49799 22.3931 6.51878 22.3666C7.00299 21.7159 7.43586 21.029 7.80636 20.3061C7.82837 20.264 7.80634 20.2134 7.76232 20.1966C7.07635 19.9404 6.4246 19.6288 5.7961 19.2752C5.74597 19.2463 5.74232 19.1765 5.78756 19.1428C5.91962 19.0454 6.05167 18.9444 6.17762 18.8421C6.20085 18.8229 6.23263 18.8193 6.25954 18.8313C10.3839 20.6838 14.8495 20.6838 18.925 18.8313C18.9519 18.8181 18.9837 18.8229 19.0069 18.8409C19.1328 18.9432 19.2649 19.0454 19.3982 19.1428C19.4434 19.1765 19.441 19.2463 19.3909 19.2752C18.7636 19.636 18.1106 19.9416 17.4234 20.1966C17.3782 20.2134 17.3586 20.264 17.3806 20.3073C17.7597 21.0278 18.1913 21.7147 18.667 22.3666C18.6865 22.3943 18.722 22.4063 18.755 22.3967C20.8141 21.77 22.9026 20.8245 25.0584 19.2667C25.0767 19.2535 25.089 19.2318 25.0914 19.2102C25.6172 13.862 24.211 9.21639 21.3656 5.09761C21.3583 5.08438 21.3473 5.07355 21.3326 5.06754L21.3338 5.06634ZM8.42016 16.3906C7.17783 16.3906 6.15562 15.2695 6.15562 13.8921C6.15562 12.5148 7.15948 11.3937 8.42016 11.3937C9.68083 11.3937 10.7055 12.5256 10.6847 13.8921C10.6847 15.2695 9.68083 16.3906 8.42016 16.3906ZM16.7949 16.3906C15.5526 16.3906 14.5304 15.2695 14.5304 13.8921C14.5304 12.5148 15.5342 11.3937 16.7949 11.3937C18.0556 11.3937 19.0803 12.5256 19.0595 13.8921C19.0595 15.2695 18.0666 16.3906 16.7949 16.3906Z" fill="white"/>
</g>
<defs>
<clipPath id="clip0_2245_1125">
<rect width="25.2" height="25.2" fill="white"/>
</clipPath>
</defs>
</svg>
