<svg width="26" height="26" viewBox="0 0 26 26" fill="none" xmlns="http://www.w3.org/2000/svg">
<g clip-path="url(#clip0_2245_1111)">
<g clip-path="url(#clip1_2245_1111)">
<path d="M12.6 0C5.6427 0 0 5.78427 0 12.9185C0 18.6263 3.6099 23.4686 8.61735 25.1772C9.2463 25.2966 9.45 24.8962 9.45 24.556V22.1509C5.9451 22.9325 5.21535 20.6266 5.21535 20.6266C4.64205 19.1335 3.8157 18.7362 3.8157 18.7362C2.67225 17.9342 3.90285 17.9513 3.90285 17.9513C5.1681 18.0418 5.8338 19.283 5.8338 19.283C6.9573 21.2575 8.78115 20.6869 9.5004 20.3564C9.61275 19.5221 9.9393 18.9515 10.3005 18.6296C7.50225 18.3013 4.56015 17.1935 4.56015 12.2446C4.56015 10.8333 5.0526 9.68136 5.85795 8.77707C5.72775 8.45087 5.2962 7.13641 5.9808 5.35796C5.9808 5.35796 7.0392 5.01131 9.44685 6.68211C10.4517 6.39575 11.529 6.25257 12.6 6.24718C13.671 6.25257 14.7493 6.39575 15.7563 6.68211C18.1619 5.01131 19.2181 5.35796 19.2181 5.35796C19.9038 7.13748 19.4723 8.45195 19.342 8.77707C20.1505 9.68136 20.6388 10.8343 20.6388 12.2446C20.6388 17.2064 17.6914 18.2991 14.8859 18.6189C15.3374 19.0193 15.75 19.8052 15.75 21.0109V24.556C15.75 24.8994 15.9516 25.3031 16.591 25.1761C21.5943 23.4655 25.2 18.6242 25.2 12.9185C25.2 5.78427 19.5583 0 12.6 0Z" fill="white"/>
</g>
</g>
<defs>
<clipPath id="clip0_2245_1111">
<rect width="25.2" height="25.2" fill="white"/>
</clipPath>
<clipPath id="clip1_2245_1111">
<rect width="25.2" height="25.2" fill="white"/>
</clipPath>
</defs>
</svg>
