<svg width="26" height="26" viewBox="0 0 26 26" fill="none" xmlns="http://www.w3.org/2000/svg">
<g clip-path="url(#clip0_2245_1116)">
<mask id="mask0_2245_1116" style="mask-type:luminance" maskUnits="userSpaceOnUse" x="1" y="1" width="23" height="23">
<path d="M23.9398 1.25977H1.25977V23.9398H23.9398V1.25977Z" fill="white"/>
</mask>
<g mask="url(#mask0_2245_1116)">
<path d="M1.25977 2.88422C1.25977 1.98695 2.00537 1.25977 2.92532 1.25977H22.2742C23.1941 1.25977 23.9398 1.98695 23.9398 2.88422V22.3154C23.9398 23.2126 23.1941 23.9398 22.2742 23.9398H2.92532C2.00537 23.9398 1.25977 23.2126 1.25977 22.3154V2.88422ZM8.26646 20.2458V10.0043H4.86305V20.2458H8.26646ZM6.56547 8.60525C7.75192 8.60525 8.49043 7.81996 8.49043 6.83621C8.46917 5.83121 7.75334 5.06717 6.58815 5.06717C5.42297 5.06717 4.66177 5.83262 4.66177 6.83621C4.66177 7.81996 5.40029 8.60525 6.54278 8.60525H6.56547ZM13.5226 20.2458V14.5262C13.5226 14.22 13.5453 13.9138 13.636 13.6955C13.8812 13.0845 14.4411 12.4509 15.3823 12.4509C16.6141 12.4509 17.106 13.3893 17.106 14.7671V20.2458H20.5094V14.3716C20.5094 11.2248 18.8311 9.76193 16.5914 9.76193C14.7855 9.76193 13.9762 10.7542 13.5226 11.453V11.4884H13.4999C13.5075 11.4766 13.5149 11.4648 13.5226 11.453V10.0043H10.1206C10.1631 10.9654 10.1206 20.2458 10.1206 20.2458H13.5226Z" fill="white"/>
</g>
</g>
<defs>
<clipPath id="clip0_2245_1116">
<rect width="25.2" height="25.2" fill="white"/>
</clipPath>
</defs>
</svg>
