<svg width="30" height="30" viewBox="0 0 30 30" fill="none" xmlns="http://www.w3.org/2000/svg">
<g clip-path="url(#clip0_2245_1100)">
<g clip-path="url(#clip1_2245_1100)">
<path d="M23.3167 -1.42773H6.17962C2.00408 -1.42773 -1.38086 2.07004 -1.38086 6.38477V24.0931C-1.38086 28.4078 2.00408 31.9056 6.17962 31.9056H23.3167C27.4923 31.9056 30.8772 28.4078 30.8772 24.0931V6.38477C30.8772 2.07004 27.4923 -1.42773 23.3167 -1.42773Z" fill="#303030"/>
<path d="M3.86668 25.0092H7.87601V14.9476L2.14844 10.5088V23.2337C2.14844 24.2161 2.91885 25.0092 3.86668 25.0092Z" fill="white"/>
<path d="M21.6191 25.0092H25.6286C26.5793 25.0092 27.3468 24.2132 27.3468 23.2337V10.5088L21.6191 14.9476" fill="white"/>
<path d="M21.6191 7.2514V14.9455L27.3468 10.5067V8.13903C27.3468 5.94333 24.9212 4.69151 23.223 6.00843" fill="white"/>
<path d="M7.87512 14.9451V7.25111L14.7482 12.5778L21.6213 7.25098V14.9451L14.7482 20.2719" fill="white"/>
<path d="M2.14844 8.13916V10.5065L7.87601 14.9454V7.2514L6.2723 6.00843C4.57119 4.6915 2.14844 5.94333 2.14844 8.13916Z" fill="white"/>
</g>
</g>
<defs>
<clipPath id="clip0_2245_1100">
<rect width="30" height="30" fill="white"/>
</clipPath>
<clipPath id="clip1_2245_1100">
<rect width="32.2581" height="33.3333" fill="white" transform="translate(-1.38086 -1.42773)"/>
</clipPath>
</defs>
</svg>
