<svg width="391" height="365" viewBox="0 0 391 365" fill="none" xmlns="http://www.w3.org/2000/svg">
<g opacity="0.42">
<path d="M278.507 55.4346L390.635 138.843V160.143H278.507V171.751H257.326V160.143H219.032V138.843H257.326V55.4346H278.507ZM278.507 138.843H355.333L278.507 81.7614V138.843Z" fill="#82A0FF"/>
<path d="M0.676025 112.128L84.084 0H105.385V112.128H116.993V133.309H105.385V171.603H84.084V133.309H0.676025V112.128ZM84.084 112.128V35.3018L27.0028 112.128H84.084Z" fill="#82A0FF"/>
<path d="M390.855 178.471V199.772C383.276 200.012 376.455 201.966 370.392 205.636C364.409 209.226 359.582 214.092 355.912 220.235C352.322 226.298 350.527 233.08 350.527 240.579C350.527 240.738 350.527 243.969 350.527 250.272C350.527 256.494 350.527 264.313 350.527 273.727C350.527 283.14 350.567 292.833 350.647 302.806H329.346C329.346 292.833 329.306 283.14 329.227 273.727C329.227 264.313 329.227 256.494 329.227 250.272C329.227 243.969 329.227 240.738 329.227 240.579C329.227 229.25 331.979 218.919 337.484 209.585C343.068 200.171 350.488 192.712 359.742 187.207C368.996 181.623 379.367 178.711 390.855 178.471Z" fill="#82A0FF"/>
<path d="M241.254 183.204C252.662 183.204 263.073 185.996 272.487 191.581C281.901 197.165 289.4 204.665 294.985 214.078C300.569 223.412 303.361 233.823 303.361 245.311C303.361 256.72 300.569 267.131 294.985 276.545C289.4 285.958 281.901 293.458 272.487 299.042C263.073 304.627 252.662 307.419 241.254 307.419C229.846 307.419 219.435 304.627 210.021 299.042C200.607 293.458 193.108 285.958 187.523 276.545C181.939 267.131 179.147 256.72 179.147 245.311C179.147 233.823 181.939 223.412 187.523 214.078C193.108 204.665 200.607 197.165 210.021 191.581C219.435 185.996 229.846 183.204 241.254 183.204ZM241.254 204.385C233.755 204.385 226.894 206.22 220.671 209.89C214.528 213.56 209.622 218.506 205.952 224.729C202.282 230.872 200.447 237.733 200.447 245.311C200.447 252.811 202.282 259.672 205.952 265.894C209.622 272.037 214.528 276.944 220.671 280.613C226.894 284.283 233.755 286.118 241.254 286.118C248.753 286.118 255.574 284.283 261.717 280.613C267.94 276.944 272.886 272.037 276.556 265.894C280.305 259.672 282.18 252.811 282.18 245.311C282.18 237.733 280.305 230.872 276.556 224.729C272.886 218.506 267.94 213.56 261.717 209.89C255.574 206.22 248.753 204.385 241.254 204.385Z" fill="#82A0FF"/>
<path d="M179.06 0C190.469 0 200.88 2.79223 210.294 8.3767C219.707 13.9612 227.206 21.4603 232.791 30.8741C238.375 40.2082 241.168 50.6192 241.168 62.1073C241.168 73.5155 238.375 83.9266 232.791 93.3404C227.206 102.754 219.707 110.253 210.294 115.838C200.88 121.422 190.469 124.215 179.06 124.215C167.652 124.215 157.241 121.422 147.827 115.838C138.413 110.253 130.914 102.754 125.33 93.3404C119.745 83.9266 116.953 73.5155 116.953 62.1073C116.953 50.6192 119.745 40.2082 125.33 30.8741C130.914 21.4603 138.413 13.9612 147.827 8.3767C157.241 2.79223 167.652 0 179.06 0ZM179.06 21.1811C171.561 21.1811 164.7 23.016 158.478 26.6858C152.335 30.3556 147.428 35.3018 143.759 41.5245C140.089 47.6674 138.254 54.5283 138.254 62.1073C138.254 69.6064 140.089 76.4673 143.759 82.69C147.428 88.8329 152.335 93.7393 158.478 97.4091C164.7 101.079 171.561 102.914 179.06 102.914C186.56 102.914 193.381 101.079 199.523 97.4091C205.746 93.7393 210.692 88.8329 214.362 82.69C218.112 76.4673 219.987 69.6064 219.987 62.1073C219.987 54.5283 218.112 47.6674 214.362 41.5245C210.692 35.3018 205.746 30.3556 199.523 26.6858C193.381 23.016 186.56 21.1811 179.06 21.1811Z" fill="#82A0FF"/>
<path d="M94.6446 365V343.699C102.224 343.46 109.045 341.505 115.108 337.836C121.091 334.246 125.918 329.379 129.587 323.236C133.177 317.173 134.972 310.392 134.972 302.893C134.972 302.733 134.972 299.502 134.972 293.2C134.972 286.977 134.972 279.159 134.972 269.745C134.972 260.331 134.933 250.638 134.853 240.666H156.154C156.154 250.638 156.193 260.331 156.273 269.745C156.273 279.159 156.273 286.977 156.273 293.2C156.273 299.502 156.273 302.733 156.273 302.893C156.273 314.221 153.521 324.553 148.016 333.887C142.432 343.3 135.012 350.76 125.758 356.264C116.504 361.849 106.133 364.761 94.6446 365Z" fill="#82A0FF"/>
<path d="M165.629 159V180.301C158.05 180.54 151.229 182.495 145.166 186.164C139.182 189.754 134.356 194.621 130.686 200.764C127.096 206.827 125.301 213.608 125.301 221.107C125.301 221.267 125.301 224.498 125.301 230.8C125.301 237.023 125.301 244.841 125.301 254.255C125.301 263.669 125.341 273.362 125.42 283.334H104.12C104.12 273.362 104.08 263.669 104 254.255C104 244.841 104 237.023 104 230.8C104 224.498 104 221.267 104 221.107C104 209.779 106.752 199.448 112.257 190.113C117.842 180.7 125.261 173.24 134.515 167.736C143.769 162.151 154.141 159.239 165.629 159Z" fill="#82A0FF"/>
<path d="M0 135.883H21.1811V157.064V211.034H87.2078V232.215H21.1811V286.304H125.531V307.486H0.119667V307.366H0V135.883Z" fill="#82A0FF"/>
<path d="M278.507 55.4346L390.635 138.843V160.143H278.507V171.751H257.326V160.143H219.032V138.843H257.326V55.4346H278.507ZM278.507 138.843H355.333L278.507 81.7614V138.843Z" fill="#82A0FF"/>
<path d="M0.00012207 112.128L83.4081 0H104.709V112.128H116.317V133.309H104.709V171.603H83.4081V133.309H0.00012207V112.128ZM83.4081 112.128V35.3018L26.3269 112.128H83.4081Z" fill="#82A0FF"/>
<path d="M390.855 178.471V199.772C383.276 200.012 376.455 201.966 370.392 205.636C364.409 209.226 359.582 214.092 355.912 220.235C352.322 226.298 350.527 233.08 350.527 240.579C350.527 240.738 350.527 243.969 350.527 250.272C350.527 256.494 350.527 264.313 350.527 273.727C350.527 283.14 350.567 292.833 350.647 302.806H329.346C329.346 292.833 329.306 283.14 329.227 273.727C329.227 264.313 329.227 256.494 329.227 250.272C329.227 243.969 329.227 240.738 329.227 240.579C329.227 229.25 331.979 218.919 337.484 209.585C343.068 200.171 350.488 192.712 359.742 187.207C368.996 181.623 379.367 178.711 390.855 178.471Z" fill="#82A0FF"/>
<path d="M241.254 183.204C252.662 183.204 263.073 185.996 272.487 191.581C281.901 197.165 289.4 204.665 294.985 214.078C300.569 223.412 303.361 233.823 303.361 245.311C303.361 256.72 300.569 267.131 294.985 276.545C289.4 285.958 281.901 293.458 272.487 299.042C263.073 304.627 252.662 307.419 241.254 307.419C229.846 307.419 219.435 304.627 210.021 299.042C200.607 293.458 193.108 285.958 187.523 276.545C181.939 267.131 179.147 256.72 179.147 245.311C179.147 233.823 181.939 223.412 187.523 214.078C193.108 204.665 200.607 197.165 210.021 191.581C219.435 185.996 229.846 183.204 241.254 183.204ZM241.254 204.385C233.755 204.385 226.894 206.22 220.671 209.89C214.528 213.56 209.622 218.506 205.952 224.729C202.282 230.872 200.447 237.733 200.447 245.311C200.447 252.811 202.282 259.672 205.952 265.894C209.622 272.037 214.528 276.944 220.671 280.613C226.894 284.283 233.755 286.118 241.254 286.118C248.753 286.118 255.574 284.283 261.717 280.613C267.94 276.944 272.886 272.037 276.556 265.894C280.305 259.672 282.18 252.811 282.18 245.311C282.18 237.733 280.305 230.872 276.556 224.729C272.886 218.506 267.94 213.56 261.717 209.89C255.574 206.22 248.753 204.385 241.254 204.385Z" fill="#82A0FF"/>
<path d="M179.06 0C190.469 0 200.88 2.79223 210.294 8.3767C219.707 13.9612 227.206 21.4603 232.791 30.8741C238.375 40.2082 241.168 50.6192 241.168 62.1073C241.168 73.5155 238.375 83.9266 232.791 93.3404C227.206 102.754 219.707 110.253 210.294 115.838C200.88 121.422 190.469 124.215 179.06 124.215C167.652 124.215 157.241 121.422 147.827 115.838C138.413 110.253 130.914 102.754 125.33 93.3404C119.745 83.9266 116.953 73.5155 116.953 62.1073C116.953 50.6192 119.745 40.2082 125.33 30.8741C130.914 21.4603 138.413 13.9612 147.827 8.3767C157.241 2.79223 167.652 0 179.06 0ZM179.06 21.1811C171.561 21.1811 164.7 23.016 158.478 26.6858C152.335 30.3556 147.428 35.3018 143.759 41.5245C140.089 47.6674 138.254 54.5283 138.254 62.1073C138.254 69.6064 140.089 76.4673 143.759 82.69C147.428 88.8329 152.335 93.7393 158.478 97.4091C164.7 101.079 171.561 102.914 179.06 102.914C186.56 102.914 193.381 101.079 199.523 97.4091C205.746 93.7393 210.692 88.8329 214.362 82.69C218.112 76.4673 219.987 69.6064 219.987 62.1073C219.987 54.5283 218.112 47.6674 214.362 41.5245C210.692 35.3018 205.746 30.3556 199.523 26.6858C193.381 23.016 186.56 21.1811 179.06 21.1811Z" fill="#82A0FF"/>
<path d="M94.6446 365V343.699C102.224 343.46 109.045 341.505 115.108 337.836C121.091 334.246 125.918 329.379 129.587 323.236C133.177 317.173 134.972 310.392 134.972 302.893C134.972 302.733 134.972 299.502 134.972 293.2C134.972 286.977 134.972 279.159 134.972 269.745C134.972 260.331 134.933 250.638 134.853 240.666H156.154C156.154 250.638 156.193 260.331 156.273 269.745C156.273 279.159 156.273 286.977 156.273 293.2C156.273 299.502 156.273 302.733 156.273 302.893C156.273 314.221 153.521 324.553 148.016 333.887C142.432 343.3 135.012 350.76 125.758 356.264C116.504 361.849 106.133 364.761 94.6446 365Z" fill="#82A0FF"/>
<path d="M0 135.883H21.1811V157.064V211.034H87.2078V232.215H21.1811V286.304H125.531V307.486H0.119667V307.366H0V135.883Z" fill="#82A0FF"/>
</g>
</svg>
