<svg width="333" height="36" viewBox="0 0 333 36" fill="none" xmlns="http://www.w3.org/2000/svg">
<g clip-path="url(#clip0_2497_79)">
<rect x="-0.962891" y="-2.95898" width="13.5362" height="28.5142" rx="4.95833" transform="rotate(3 -0.962891 -2.95898)" fill="black"/>
<rect x="38.4727" y="-0.891602" width="12.2798" height="24.7839" rx="4.95833" transform="rotate(93 38.4727 -0.891602)" fill="black"/>
<rect x="36.2773" y="40.9365" width="13.5362" height="28.5142" rx="4.95833" transform="rotate(-177 36.2773 40.9365)" fill="black"/>
<rect x="-3.1543" y="38.8701" width="12.2798" height="24.7839" rx="4.95833" transform="rotate(-87 -3.1543 38.8701)" fill="black"/>
</g>
<path d="M55.7111 11.5883L52.9905 19.5082H58.4317L55.7111 11.5883ZM52.0686 22.1835L49.7259 29H46.8995L54.3357 7.34123H57.0865L64.5227 29H61.6964L59.3537 22.1835H52.0686ZM83.0075 7.34123C84.7708 7.34123 86.3981 7.72917 87.8894 8.50503C89.3807 9.27082 90.6251 10.3137 91.6226 11.6337L89.4311 13.1149C88.6754 12.1577 87.7383 11.3969 86.6198 10.8326C85.5114 10.2684 84.3073 9.98623 83.0075 9.98623C81.5062 9.98623 80.1358 10.354 78.8964 11.0896C77.6671 11.8251 76.6847 12.8126 75.9491 14.052C75.2136 15.2813 74.8458 16.6466 74.8458 18.1479C74.8458 19.6493 75.2136 21.0197 75.9491 22.259C76.6847 23.4984 77.6671 24.4859 78.8964 25.2214C80.1358 25.9469 81.5062 26.3097 83.0075 26.3097C84.3073 26.3097 85.5114 26.0326 86.6198 25.4784C87.7383 24.9141 88.6754 24.1534 89.4311 23.1961L91.6226 24.6773C90.6251 25.9973 89.3807 27.0452 87.8894 27.8211C86.3981 28.5869 84.7708 28.9698 83.0075 28.9698C81.0124 28.9698 79.1987 28.4861 77.5664 27.5188C75.934 26.5414 74.6292 25.2365 73.6518 23.6042C72.6845 21.9618 72.2008 20.143 72.2008 18.1479C72.2008 16.1629 72.6845 14.3543 73.6518 12.7219C74.6292 11.0795 75.934 9.77463 77.5664 8.80732C79.1987 7.82993 81.0124 7.34123 83.0075 7.34123ZM101.447 13.3114C102.888 13.3114 104.203 13.664 105.392 14.3694C106.581 15.0747 107.528 16.0219 108.233 17.2109C108.939 18.3898 109.291 19.7047 109.291 21.1557C109.291 22.5966 108.939 23.9115 108.233 25.1005C107.528 26.2895 106.581 27.2367 105.392 27.942C104.203 28.6473 102.888 29 101.447 29C100.006 29 98.6911 28.6473 97.5021 27.942C96.3131 27.2367 95.366 26.2895 94.6606 25.1005C93.9553 23.9115 93.6026 22.5966 93.6026 21.1557C93.6026 19.7047 93.9553 18.3898 94.6606 17.2109C95.366 16.0219 96.3131 15.0747 97.5021 14.3694C98.6911 13.664 100.006 13.3114 101.447 13.3114ZM101.447 15.9866C100.5 15.9866 99.6332 16.2184 98.8473 16.6819C98.0714 17.1454 97.4517 17.7701 96.9882 18.556C96.5247 19.3319 96.293 20.1985 96.293 21.1557C96.293 22.1028 96.5247 22.9694 96.9882 23.7553C97.4517 24.5312 98.0714 25.1509 98.8473 25.6144C99.6332 26.0779 100.5 26.3097 101.447 26.3097C102.394 26.3097 103.256 26.0779 104.031 25.6144C104.817 25.1509 105.442 24.5312 105.906 23.7553C106.379 22.9694 106.616 22.1028 106.616 21.1557C106.616 20.1985 106.379 19.3319 105.906 18.556C105.442 17.7701 104.817 17.1454 104.031 16.6819C103.256 16.2184 102.394 15.9866 101.447 15.9866ZM136.089 29H133.399V20.0221C133.328 18.6618 132.864 17.6391 132.008 16.9539C131.152 16.2687 130.184 15.9261 129.106 15.9261C128.068 15.9665 127.151 16.3292 126.355 17.0144C125.559 17.6895 125.111 18.5913 125.01 19.7198C125.02 19.8206 125.025 19.9214 125.025 20.0221V29H122.335V28.9093C122.335 28.8489 122.335 28.3854 122.335 27.5188C122.335 26.6522 122.33 25.6396 122.32 24.4808C122.32 23.312 122.32 22.2691 122.32 21.3522C122.32 20.4352 122.32 19.9667 122.32 19.9465V19.7501C122.189 18.4805 121.7 17.5283 120.854 16.8935C120.017 16.2486 119.08 15.9261 118.042 15.9261C117.347 15.9463 116.687 16.1277 116.062 16.4703C115.448 16.8028 114.939 17.2713 114.536 17.8759C114.143 18.4704 113.946 19.1606 113.946 19.9465C113.946 19.9667 113.946 20.4352 113.946 21.3522C113.946 22.2691 113.946 23.312 113.946 24.4808C113.957 25.6396 113.962 26.6674 113.962 27.5641C113.962 28.4609 113.962 28.9395 113.962 29H111.271C111.271 28.9395 111.271 28.4609 111.271 27.5641C111.271 26.6674 111.266 25.6396 111.256 24.4808C111.256 23.312 111.256 22.2691 111.256 21.3522C111.256 20.4352 111.256 19.9667 111.256 19.9465C111.276 18.6266 111.604 17.4678 112.239 16.4703C112.883 15.4626 113.72 14.6767 114.748 14.1124C115.785 13.5381 116.884 13.2509 118.042 13.2509C120.38 13.3114 122.244 14.2233 123.635 15.9866C124.29 15.1301 125.096 14.4601 126.053 13.9764C127.02 13.4927 128.038 13.2509 129.106 13.2509C131.01 13.2811 132.628 13.921 133.958 15.1704C135.298 16.4199 136.008 18.0371 136.089 20.0221V29ZM163.295 29H160.604V20.0221C160.534 18.6618 160.07 17.6391 159.214 16.9539C158.357 16.2687 157.39 15.9261 156.312 15.9261C155.274 15.9665 154.357 16.3292 153.561 17.0144C152.765 17.6895 152.317 18.5913 152.216 19.7198C152.226 19.8206 152.231 19.9214 152.231 20.0221V29H149.541V28.9093C149.541 28.8489 149.541 28.3854 149.541 27.5188C149.541 26.6522 149.536 25.6396 149.525 24.4808C149.525 23.312 149.525 22.2691 149.525 21.3522C149.525 20.4352 149.525 19.9667 149.525 19.9465V19.7501C149.394 18.4805 148.906 17.5283 148.059 16.8935C147.223 16.2486 146.286 15.9261 145.248 15.9261C144.553 15.9463 143.893 16.1277 143.268 16.4703C142.654 16.8028 142.145 17.2713 141.742 17.8759C141.349 18.4704 141.152 19.1606 141.152 19.9465C141.152 19.9667 141.152 20.4352 141.152 21.3522C141.152 22.2691 141.152 23.312 141.152 24.4808C141.162 25.6396 141.167 26.6674 141.167 27.5641C141.167 28.4609 141.167 28.9395 141.167 29H138.477C138.477 28.9395 138.477 28.4609 138.477 27.5641C138.477 26.6674 138.472 25.6396 138.462 24.4808C138.462 23.312 138.462 22.2691 138.462 21.3522C138.462 20.4352 138.462 19.9667 138.462 19.9465C138.482 18.6266 138.809 17.4678 139.444 16.4703C140.089 15.4626 140.925 14.6767 141.953 14.1124C142.991 13.5381 144.089 13.2509 145.248 13.2509C147.586 13.3114 149.45 14.2233 150.84 15.9866C151.495 15.1301 152.301 14.4601 153.259 13.9764C154.226 13.4927 155.244 13.2509 156.312 13.2509C158.216 13.2811 159.833 13.921 161.163 15.1704C162.504 16.4199 163.214 18.0371 163.295 20.0221V29ZM179.346 13.2963V21.8056C179.336 22.0777 179.331 22.2187 179.331 22.2288C179.26 24.2138 178.555 25.831 177.215 27.0805C175.885 28.3199 174.268 28.9597 172.363 29C171.194 29 170.091 28.7128 169.053 28.1385C168.025 27.5641 167.194 26.7782 166.559 25.7807C165.924 24.773 165.597 23.6143 165.577 22.3044C165.577 22.2842 165.577 21.8157 165.577 20.8987C165.577 19.9818 165.577 18.9389 165.577 17.7701C165.577 16.6013 165.577 15.5785 165.577 14.7019C165.587 13.8253 165.592 13.3567 165.592 13.2963H168.282C168.282 13.3567 168.277 13.8253 168.267 14.7019C168.267 15.5785 168.267 16.6013 168.267 17.7701C168.267 18.9389 168.262 19.9818 168.252 20.8987C168.252 21.8157 168.252 22.2842 168.252 22.3044C168.252 23.0903 168.449 23.7805 168.842 24.375C169.245 24.9695 169.753 25.4381 170.368 25.7807C170.993 26.1132 171.658 26.2895 172.363 26.3097H172.408C173.456 26.3097 174.404 25.9721 175.25 25.297C176.106 24.6118 176.575 23.5891 176.656 22.2288V13.2963H179.346ZM195.095 29H192.405V20.0675C192.324 18.7072 191.856 17.6844 190.999 16.9993C190.143 16.3141 189.18 15.9715 188.112 15.9715C187.407 15.9916 186.742 16.173 186.117 16.5156C185.502 16.8481 184.994 17.3167 184.591 17.9212C184.198 18.5157 184.001 19.2059 184.001 19.9919C184.001 20.012 184.001 20.4806 184.001 21.3975C184.011 22.3144 184.016 23.3573 184.016 24.5262C184.016 25.6849 184.016 26.7077 184.016 27.5944C184.026 28.471 184.031 28.9395 184.031 29H181.341C181.341 28.9395 181.336 28.471 181.326 27.5944C181.326 26.7077 181.326 25.6849 181.326 24.5262C181.326 23.3573 181.326 22.3144 181.326 21.3975C181.326 20.4806 181.326 20.012 181.326 19.9919C181.346 18.6719 181.674 17.5131 182.308 16.5156C182.943 15.508 183.774 14.722 184.802 14.1578C185.84 13.5834 186.943 13.2963 188.112 13.2963C190.017 13.3265 191.634 13.9663 192.964 15.2158C194.304 16.4652 195.009 18.0825 195.08 20.0675V20.536C195.09 21.0197 195.095 21.725 195.095 22.652C195.095 23.5689 195.095 24.5211 195.095 25.5086C195.095 26.486 195.095 27.3022 195.095 27.9571C195.095 28.602 195.095 28.9496 195.095 29ZM197.226 13.2963H199.901V29H197.226V13.2963ZM198.556 7.32612C198.929 7.32612 199.241 7.45711 199.493 7.71909C199.755 7.98107 199.886 8.29343 199.886 8.65618C199.886 9.029 199.755 9.3464 199.493 9.60838C199.241 9.86028 198.929 9.98623 198.556 9.98623C198.193 9.98623 197.881 9.86028 197.619 9.60838C197.357 9.3464 197.226 9.029 197.226 8.65618C197.226 8.29343 197.357 7.98107 197.619 7.71909C197.881 7.45711 198.193 7.32612 198.556 7.32612ZM208.335 29H207.806C206.033 28.9597 204.617 28.34 203.559 27.1409C202.501 25.9419 201.972 24.3297 201.972 22.3044V7.32612H204.662V13.2963H207.277V15.6692H204.662V22.3044C204.662 23.4833 204.929 24.4355 205.463 25.161C205.997 25.8865 206.778 26.2694 207.806 26.3097H208.335V29ZM212.083 13.2811L216.678 25.2668L221.273 13.2811H224.13L218.114 29C218.084 29.0705 218.049 29.1461 218.008 29.2267C217.504 30.456 216.97 31.5392 216.406 32.4763C215.852 33.4134 215.106 34.1489 214.169 34.683C213.242 35.217 211.958 35.4941 210.315 35.5143V32.8239C211.524 32.7836 212.572 32.4158 213.459 31.7206C214.346 31.0253 214.94 30.1185 215.242 29L209.227 13.2811H212.083ZM231.808 7.32612H234.483V28.9849H231.808V7.32612ZM250.564 29H247.874V20.0675C247.793 18.7072 247.325 17.6844 246.468 16.9993C245.612 16.3141 244.65 15.9715 243.582 15.9715C242.876 15.9916 242.211 16.173 241.587 16.5156C240.972 16.8481 240.463 17.3167 240.06 17.9212C239.667 18.5157 239.471 19.2059 239.471 19.9919C239.471 20.012 239.471 20.4806 239.471 21.3975C239.481 22.3144 239.486 23.3573 239.486 24.5262C239.486 25.6849 239.486 26.7077 239.486 27.5944C239.496 28.471 239.501 28.9395 239.501 29H236.81C236.81 28.9395 236.805 28.471 236.795 27.5944C236.795 26.7077 236.795 25.6849 236.795 24.5262C236.795 23.3573 236.795 22.3144 236.795 21.3975C236.795 20.4806 236.795 20.012 236.795 19.9919C236.815 18.6719 237.143 17.5131 237.778 16.5156C238.413 15.508 239.244 14.722 240.272 14.1578C241.309 13.5834 242.413 13.2963 243.582 13.2963C245.486 13.3265 247.103 13.9663 248.433 15.2158C249.773 16.4652 250.479 18.0825 250.549 20.0675V20.536C250.559 21.0197 250.564 21.725 250.564 22.652C250.564 23.5689 250.564 24.5211 250.564 25.5086C250.564 26.486 250.564 27.3022 250.564 27.9571C250.564 28.602 250.564 28.9496 250.564 29ZM252.696 13.2963H255.371V29H252.696V13.2963ZM254.026 7.32612C254.398 7.32612 254.711 7.45711 254.963 7.71909C255.225 7.98107 255.356 8.29343 255.356 8.65618C255.356 9.029 255.225 9.3464 254.963 9.60838C254.711 9.86028 254.398 9.98623 254.026 9.98623C253.663 9.98623 253.35 9.86028 253.089 9.60838C252.827 9.3464 252.696 9.029 252.696 8.65618C252.696 8.29343 252.827 7.98107 253.089 7.71909C253.35 7.45711 253.663 7.32612 254.026 7.32612ZM263.805 29H263.276C261.502 28.9597 260.086 28.34 259.028 27.1409C257.97 25.9419 257.441 24.3297 257.441 22.3044V7.32612H260.132V13.2963H262.747V15.6692H260.132V22.3044C260.132 23.4833 260.399 24.4355 260.933 25.161C261.467 25.8865 262.248 26.2694 263.276 26.3097H263.805V29ZM265.724 13.2963H268.399V29H265.724V13.2963ZM267.054 7.32612C267.427 7.32612 267.739 7.45711 267.991 7.71909C268.253 7.98107 268.384 8.29343 268.384 8.65618C268.384 9.029 268.253 9.3464 267.991 9.60838C267.739 9.86028 267.427 9.98623 267.054 9.98623C266.691 9.98623 266.379 9.86028 266.117 9.60838C265.855 9.3464 265.724 9.029 265.724 8.65618C265.724 8.29343 265.855 7.98107 266.117 7.71909C266.379 7.45711 266.691 7.32612 267.054 7.32612ZM286.174 29H283.498V27.0503C282.803 27.6649 282.012 28.1435 281.126 28.4861C280.249 28.8287 279.317 29 278.329 29C276.878 29 275.558 28.6473 274.369 27.942C273.18 27.2367 272.233 26.2895 271.528 25.1005C270.823 23.9115 270.47 22.5966 270.47 21.1557C270.47 19.7047 270.823 18.3898 271.528 17.2109C272.233 16.0219 273.18 15.0747 274.369 14.3694C275.558 13.664 276.878 13.3114 278.329 13.3114C279.76 13.3114 281.065 13.659 282.244 14.3543C283.423 15.0495 284.36 15.9816 285.055 17.1504C285.761 18.3092 286.133 19.614 286.174 21.065V29ZM278.329 15.9866C277.372 15.9866 276.501 16.2184 275.715 16.6819C274.939 17.1454 274.319 17.7701 273.856 18.556C273.392 19.3319 273.16 20.1985 273.16 21.1557C273.16 22.1028 273.392 22.9694 273.856 23.7553C274.319 24.5312 274.939 25.1509 275.715 25.6144C276.501 26.0779 277.372 26.3097 278.329 26.3097C279.277 26.3097 280.138 26.0779 280.914 25.6144C281.7 25.1509 282.325 24.5312 282.788 23.7553C283.252 22.9694 283.483 22.1028 283.483 21.1557C283.483 20.1985 283.252 19.3319 282.788 18.556C282.325 17.7701 281.7 17.1454 280.914 16.6819C280.138 16.2184 279.277 15.9866 278.329 15.9866ZM294.607 29H294.078C292.305 28.9597 290.889 28.34 289.831 27.1409C288.773 25.9419 288.244 24.3297 288.244 22.3044V7.32612H290.935V13.2963H293.549V15.6692H290.935V22.3044C290.935 23.4833 291.202 24.4355 291.736 25.161C292.27 25.8865 293.051 26.2694 294.078 26.3097H294.607V29ZM296.527 13.2963H299.202V29H296.527V13.2963ZM297.857 7.32612C298.23 7.32612 298.542 7.45711 298.794 7.71909C299.056 7.98107 299.187 8.29343 299.187 8.65618C299.187 9.029 299.056 9.3464 298.794 9.60838C298.542 9.86028 298.23 9.98623 297.857 9.98623C297.494 9.98623 297.182 9.86028 296.92 9.60838C296.658 9.3464 296.527 9.029 296.527 8.65618C296.527 8.29343 296.658 7.98107 296.92 7.71909C297.182 7.45711 297.494 7.32612 297.857 7.32612ZM304.658 13.2811L309.253 25.2668L313.848 13.2811H316.705L310.689 29H307.817L301.787 13.2811H304.658ZM324.624 13.2963C326.388 13.2963 327.889 13.7144 329.128 14.5507C330.378 15.3871 331.29 16.4904 331.864 17.8608C332.277 18.8583 332.484 19.9314 332.484 21.0801C332.484 21.5235 332.454 21.9769 332.393 22.4404L319.637 22.5009C319.959 23.6193 320.574 24.5362 321.481 25.2517C322.387 25.957 323.435 26.3097 324.624 26.3097C325.551 26.3097 326.398 26.088 327.164 25.6446C327.939 25.1912 328.559 24.5917 329.023 23.846H332C331.416 25.3776 330.464 26.622 329.144 27.5793C327.824 28.5264 326.317 29 324.624 29C323.184 29 321.869 28.6473 320.68 27.942C319.491 27.2367 318.543 26.2895 317.838 25.1005C317.133 23.9115 316.78 22.5966 316.78 21.1557C316.78 19.7047 317.133 18.3898 317.838 17.2109C318.543 16.0219 319.491 15.0747 320.68 14.3694C321.869 13.654 323.184 13.2963 324.624 13.2963ZM329.612 19.7954C329.29 18.6769 328.675 17.7651 327.768 17.0597C326.861 16.3443 325.813 15.9866 324.624 15.9866C323.435 15.9866 322.387 16.3443 321.481 17.0597C320.574 17.7651 319.959 18.6769 319.637 19.7954H329.612Z" fill="black"/>
<defs>
<clipPath id="clip0_2497_79">
<rect width="35.7" height="35.7" rx="6.61111" fill="white"/>
</clipPath>
</defs>
</svg>
